<svg width="23.312988" height="23.313000" viewBox="0 0 23.313 23.313" fill="none" xmlns="http://www.w3.org/2000/svg" xmlns:xlink="http://www.w3.org/1999/xlink">
	<desc>
			Created with Pixso.
	</desc>
	<defs/>
	<path id="Vector" d="M8.68 14.68C12 14.68 14.68 12 14.68 8.68C14.68 5.37 12 2.68 8.68 2.68C5.37 2.68 2.68 5.37 2.68 8.68C2.68 12 5.37 14.68 8.68 14.68ZM16.68 14.68L23.31 21.31L21.31 23.31L14.68 16.68L14.68 15.62L14.31 15.25C12.81 16.56 10.81 17.31 8.68 17.31C3.87 17.31 0 13.5 0 8.68C0 3.87 3.87 0 8.68 0C13.5 0 17.31 3.87 17.31 8.68C17.31 10.81 16.56 12.81 15.25 14.31L15.62 14.68L16.68 14.68Z" fill="#FFFFFF" fill-opacity="1.000000" fill-rule="nonzero"/>
</svg>
